<svg width="256" height="554" viewBox="0 0 256 554" fill="none" xmlns="http://www.w3.org/2000/svg">
<path d="M171.178 338.139C171.178 335.914 172.982 334.11 175.207 334.11C177.431 334.11 179.235 335.914 179.235 338.139C179.235 340.363 177.431 342.167 175.207 342.167C173.007 342.167 171.178 340.363 171.178 338.139Z" fill="url(#paint0_linear_3_366)"/>
<path d="M175.898 246.82H174.564V335.791H175.898V246.82Z" fill="url(#paint1_linear_3_366)"/>
<path d="M38.5126 133.901C38.5126 131.677 40.3167 129.873 42.541 129.873C44.7653 129.873 46.5694 131.677 46.5694 133.901C46.5694 136.125 44.7653 137.929 42.541 137.929C40.3167 137.929 38.5126 136.125 38.5126 133.901Z" fill="url(#paint2_linear_3_366)"/>
<path d="M43.2329 42.5822H41.8984V131.553H43.2329V42.5822Z" fill="url(#paint3_linear_3_366)"/>
<path d="M78.7472 154.34C78.7472 152.115 80.5513 150.311 82.7756 150.311C84.9999 150.311 86.804 152.115 86.804 154.34C86.804 156.564 84.9999 158.368 82.7756 158.368C80.5761 158.393 78.7472 156.589 78.7472 154.34Z" fill="url(#paint4_linear_3_366)"/>
<path d="M83.4676 63.0455H82.133V152.041H83.4676V63.0455Z" fill="url(#paint5_linear_3_366)"/>
<path d="M144.388 384.082C144.388 381.858 146.192 380.054 148.416 380.054C150.641 380.054 152.445 381.858 152.445 384.082C152.445 386.307 150.641 388.111 148.416 388.111C146.192 388.111 144.388 386.307 144.388 384.082Z" fill="url(#paint6_linear_3_366)"/>
<path d="M149.108 292.764H147.774V381.735H149.108V292.764Z" fill="url(#paint7_linear_3_366)"/>
<path d="M206.742 124.954C206.742 122.73 208.546 120.926 210.77 120.926C212.994 120.926 214.799 122.73 214.799 124.954C214.799 127.179 212.994 128.983 210.77 128.983C208.546 128.983 206.742 127.179 206.742 124.954Z" fill="url(#paint8_linear_3_366)"/>
<path d="M211.438 33.6603H210.103V122.631H211.438V33.6603Z" fill="url(#paint9_linear_3_366)"/>
<path d="M95.5529 121C95.5529 118.776 97.357 116.972 99.5813 116.972C101.806 116.972 103.61 118.776 103.61 121C103.61 123.224 101.806 125.029 99.5813 125.029C97.357 125.029 95.5529 123.224 95.5529 121Z" fill="url(#paint10_linear_3_366)"/>
<path d="M100.273 74.1916H98.9387V118.677H100.273V74.1916Z" fill="url(#paint11_linear_3_366)"/>
<path d="M247.495 344.663C247.495 342.439 249.3 340.635 251.524 340.635C253.748 340.635 255.552 342.439 255.552 344.663C255.552 346.888 253.748 348.692 251.524 348.692C249.324 348.692 247.495 346.888 247.495 344.663Z" fill="url(#paint12_linear_3_366)"/>
<path d="M252.216 297.83H250.881V342.315H252.216V297.83Z" fill="url(#paint13_linear_3_366)"/>
<path d="M15.7261 108.94C15.7261 106.715 17.5302 104.911 19.7545 104.911C21.9787 104.911 23.7829 106.715 23.7829 108.94C23.7829 111.164 21.9787 112.968 19.7545 112.968C17.5302 112.968 15.7261 111.164 15.7261 108.94Z" fill="url(#paint14_linear_3_366)"/>
<path d="M20.4465 62.1064H19.1119V106.592H20.4465V62.1064Z" fill="url(#paint15_linear_3_366)"/>
<path d="M145.97 47.3026C145.97 45.0783 147.774 43.2742 149.998 43.2742C152.222 43.2742 154.027 45.0783 154.027 47.3026C154.027 49.5269 152.222 51.331 149.998 51.331C147.799 51.3557 145.97 49.5269 145.97 47.3026Z" fill="url(#paint16_linear_3_366)"/>
<path d="M150.69 0.493988H149.356V44.9795H150.69V0.493988Z" fill="url(#paint17_linear_3_366)"/>
<path d="M89.918 372.862C89.918 370.638 91.7222 368.834 93.9464 368.834C96.1707 368.834 97.9748 370.638 97.9748 372.862C97.9748 375.086 96.1707 376.89 93.9464 376.89C91.7222 376.89 89.918 375.086 89.918 372.862Z" fill="url(#paint18_linear_3_366)"/>
<path d="M94.6137 281.543H93.2791V370.539H94.6137V281.543Z" fill="url(#paint19_linear_3_366)"/>
<path d="M205.852 325.633C205.852 323.409 207.656 321.605 209.88 321.605C212.105 321.605 213.909 323.409 213.909 325.633C213.909 327.858 212.105 329.662 209.88 329.662C207.656 329.686 205.852 327.882 205.852 325.633Z" fill="url(#paint20_linear_3_366)"/>
<path d="M210.548 234.339H209.213V323.335H210.548V234.339Z" fill="url(#paint21_linear_3_366)"/>
<path d="M11.6977 549.815C11.6977 547.591 13.5018 545.787 15.7261 545.787C17.9504 545.787 19.7545 547.591 19.7545 549.815C19.7545 552.04 17.9504 553.844 15.7261 553.844C13.5018 553.869 11.6977 552.04 11.6977 549.815Z" fill="url(#paint22_linear_3_366)"/>
<path d="M16.3934 240.468H15.0588V547.492H16.3934V240.468Z" fill="url(#paint23_linear_3_366)"/>
<path d="M182.522 374.024C182.522 371.8 184.326 369.995 186.55 369.995C188.775 369.995 190.579 371.8 190.579 374.024C190.579 376.248 188.775 378.052 186.55 378.052C184.326 378.052 182.522 376.248 182.522 374.024Z" fill="url(#paint24_linear_3_366)"/>
<path d="M187.218 64.6766H185.883V371.701H187.218V64.6766Z" fill="url(#paint25_linear_3_366)"/>
<path d="M74.0021 464.008C74.0021 461.784 75.8062 459.98 78.0305 459.98C80.2547 459.98 82.0589 461.784 82.0589 464.008C82.0589 466.232 80.2547 468.036 78.0305 468.036C75.8062 468.061 74.0021 466.232 74.0021 464.008Z" fill="url(#paint26_linear_3_366)"/>
<path d="M78.7225 154.686H77.3879V461.71H78.7225V154.686Z" fill="url(#paint27_linear_3_366)"/>
<path d="M159.291 225.862C159.291 223.638 161.095 221.834 163.319 221.834C165.543 221.834 167.347 223.638 167.347 225.862C167.347 228.087 165.543 229.891 163.319 229.891C161.095 229.916 159.291 228.111 159.291 225.862Z" fill="url(#paint28_linear_3_366)"/>
<path d="M164.011 53.6788H162.676V223.539H164.011V53.6788Z" fill="url(#paint29_linear_3_366)"/>
<defs>
<linearGradient id="paint0_linear_3_366" x1="175.224" y1="315.457" x2="175.224" y2="245.437" gradientUnits="userSpaceOnUse">
<stop stop-color="#A4FFFF"/>
<stop offset="1" stop-color="#A4FFFF" stop-opacity="0"/>
</linearGradient>
<linearGradient id="paint1_linear_3_366" x1="175.226" y1="315.456" x2="175.226" y2="245.438" gradientUnits="userSpaceOnUse">
<stop stop-color="#A4FFFF"/>
<stop offset="1" stop-color="#A4FFFF" stop-opacity="0"/>
</linearGradient>
<linearGradient id="paint2_linear_3_366" x1="42.557" y1="111.226" x2="42.557" y2="41.2065" gradientUnits="userSpaceOnUse">
<stop stop-color="#A4FFFF"/>
<stop offset="1" stop-color="#A4FFFF" stop-opacity="0"/>
</linearGradient>
<linearGradient id="paint3_linear_3_366" x1="42.5568" y1="111.225" x2="42.5568" y2="41.2073" gradientUnits="userSpaceOnUse">
<stop stop-color="#A4FFFF"/>
<stop offset="1" stop-color="#A4FFFF" stop-opacity="0"/>
</linearGradient>
<linearGradient id="paint4_linear_3_366" x1="82.7946" y1="131.676" x2="82.7946" y2="61.6535" gradientUnits="userSpaceOnUse">
<stop stop-color="#A4FFFF"/>
<stop offset="1" stop-color="#A4FFFF" stop-opacity="0"/>
</linearGradient>
<linearGradient id="paint5_linear_3_366" x1="82.7946" y1="131.676" x2="82.7946" y2="61.6568" gradientUnits="userSpaceOnUse">
<stop stop-color="#A4FFFF"/>
<stop offset="1" stop-color="#A4FFFF" stop-opacity="0"/>
</linearGradient>
<linearGradient id="paint6_linear_3_366" x1="148.431" y1="361.411" x2="148.431" y2="291.41" gradientUnits="userSpaceOnUse">
<stop stop-color="#A4FFFF"/>
<stop offset="1" stop-color="#A4FFFF" stop-opacity="0"/>
</linearGradient>
<linearGradient id="paint7_linear_3_366" x1="148.432" y1="361.404" x2="148.432" y2="291.386" gradientUnits="userSpaceOnUse">
<stop stop-color="#A4FFFF"/>
<stop offset="1" stop-color="#A4FFFF" stop-opacity="0"/>
</linearGradient>
<linearGradient id="paint8_linear_3_366" x1="210.771" y1="102.282" x2="210.771" y2="32.2625" gradientUnits="userSpaceOnUse">
<stop stop-color="#A4FFFF"/>
<stop offset="1" stop-color="#A4FFFF" stop-opacity="0"/>
</linearGradient>
<linearGradient id="paint9_linear_3_366" x1="210.77" y1="102.281" x2="210.77" y2="32.263" gradientUnits="userSpaceOnUse">
<stop stop-color="#A4FFFF"/>
<stop offset="1" stop-color="#A4FFFF" stop-opacity="0"/>
</linearGradient>
<linearGradient id="paint10_linear_3_366" x1="99.5926" y1="98.3314" x2="99.5926" y2="28.3118" gradientUnits="userSpaceOnUse">
<stop stop-color="#A4FFFF"/>
<stop offset="1" stop-color="#A4FFFF" stop-opacity="0"/>
</linearGradient>
<linearGradient id="paint11_linear_3_366" x1="99.5939" y1="108.507" x2="99.5939" y2="73.4979" gradientUnits="userSpaceOnUse">
<stop stop-color="#A4FFFF"/>
<stop offset="1" stop-color="#A4FFFF" stop-opacity="0"/>
</linearGradient>
<linearGradient id="paint12_linear_3_366" x1="251.542" y1="321.981" x2="251.542" y2="251.961" gradientUnits="userSpaceOnUse">
<stop stop-color="#A4FFFF"/>
<stop offset="1" stop-color="#A4FFFF" stop-opacity="0"/>
</linearGradient>
<linearGradient id="paint13_linear_3_366" x1="251.542" y1="332.157" x2="251.542" y2="297.148" gradientUnits="userSpaceOnUse">
<stop stop-color="#A4FFFF"/>
<stop offset="1" stop-color="#A4FFFF" stop-opacity="0"/>
</linearGradient>
<linearGradient id="paint14_linear_3_366" x1="19.771" y1="86.2509" x2="19.771" y2="16.2097" gradientUnits="userSpaceOnUse">
<stop stop-color="#A4FFFF"/>
<stop offset="1" stop-color="#A4FFFF" stop-opacity="0"/>
</linearGradient>
<linearGradient id="paint15_linear_3_366" x1="19.7711" y1="96.4351" x2="19.7711" y2="61.4255" gradientUnits="userSpaceOnUse">
<stop stop-color="#A4FFFF"/>
<stop offset="1" stop-color="#A4FFFF" stop-opacity="0"/>
</linearGradient>
<linearGradient id="paint16_linear_3_366" x1="150.018" y1="24.6352" x2="150.018" y2="-45.3847" gradientUnits="userSpaceOnUse">
<stop stop-color="#A4FFFF"/>
<stop offset="1" stop-color="#A4FFFF" stop-opacity="0"/>
</linearGradient>
<linearGradient id="paint17_linear_3_366" x1="150.02" y1="34.8103" x2="150.02" y2="-0.195785" gradientUnits="userSpaceOnUse">
<stop stop-color="#A4FFFF"/>
<stop offset="1" stop-color="#A4FFFF" stop-opacity="0"/>
</linearGradient>
<linearGradient id="paint18_linear_3_366" x1="93.9571" y1="350.188" x2="93.9571" y2="280.168" gradientUnits="userSpaceOnUse">
<stop stop-color="#A4FFFF"/>
<stop offset="1" stop-color="#A4FFFF" stop-opacity="0"/>
</linearGradient>
<linearGradient id="paint19_linear_3_366" x1="93.9558" y1="350.188" x2="93.9558" y2="280.168" gradientUnits="userSpaceOnUse">
<stop stop-color="#A4FFFF"/>
<stop offset="1" stop-color="#A4FFFF" stop-opacity="0"/>
</linearGradient>
<linearGradient id="paint20_linear_3_366" x1="209.887" y1="302.964" x2="209.887" y2="232.923" gradientUnits="userSpaceOnUse">
<stop stop-color="#A4FFFF"/>
<stop offset="1" stop-color="#A4FFFF" stop-opacity="0"/>
</linearGradient>
<linearGradient id="paint21_linear_3_366" x1="209.888" y1="302.97" x2="209.888" y2="232.952" gradientUnits="userSpaceOnUse">
<stop stop-color="#A4FFFF"/>
<stop offset="1" stop-color="#A4FFFF" stop-opacity="0"/>
</linearGradient>
<linearGradient id="paint22_linear_3_366" x1="15.7345" y1="510.33" x2="15.7345" y2="385.631" gradientUnits="userSpaceOnUse">
<stop stop-color="#A4FFFF"/>
<stop offset="1" stop-color="#A4FFFF" stop-opacity="0"/>
</linearGradient>
<linearGradient id="paint23_linear_3_366" x1="15.7358" y1="479.128" x2="15.7358" y2="249.739" gradientUnits="userSpaceOnUse">
<stop stop-color="#A4FFFF"/>
<stop offset="1" stop-color="#A4FFFF" stop-opacity="0"/>
</linearGradient>
<linearGradient id="paint24_linear_3_366" x1="186.548" y1="334.534" x2="186.548" y2="209.835" gradientUnits="userSpaceOnUse">
<stop stop-color="#A4FFFF"/>
<stop offset="1" stop-color="#A4FFFF" stop-opacity="0"/>
</linearGradient>
<linearGradient id="paint25_linear_3_366" x1="186.55" y1="303.331" x2="186.55" y2="73.9432" gradientUnits="userSpaceOnUse">
<stop stop-color="#A4FFFF"/>
<stop offset="1" stop-color="#A4FFFF" stop-opacity="0"/>
</linearGradient>
<linearGradient id="paint26_linear_3_366" x1="78.0448" y1="424.523" x2="78.0448" y2="299.825" gradientUnits="userSpaceOnUse">
<stop stop-color="#A4FFFF"/>
<stop offset="1" stop-color="#A4FFFF" stop-opacity="0"/>
</linearGradient>
<linearGradient id="paint27_linear_3_366" x1="78.0461" y1="393.319" x2="78.0461" y2="163.932" gradientUnits="userSpaceOnUse">
<stop stop-color="#A4FFFF"/>
<stop offset="1" stop-color="#A4FFFF" stop-opacity="0"/>
</linearGradient>
<linearGradient id="paint28_linear_3_366" x1="163.33" y1="186.369" x2="163.33" y2="61.632" gradientUnits="userSpaceOnUse">
<stop stop-color="#A4FFFF"/>
<stop offset="1" stop-color="#A4FFFF" stop-opacity="0"/>
</linearGradient>
<linearGradient id="paint29_linear_3_366" x1="163.33" y1="185.724" x2="163.33" y2="58.8085" gradientUnits="userSpaceOnUse">
<stop stop-color="#A4FFFF"/>
<stop offset="1" stop-color="#A4FFFF" stop-opacity="0"/>
</linearGradient>
</defs>
</svg>
