<svg width="334" height="572" viewBox="0 0 334 572" fill="none" xmlns="http://www.w3.org/2000/svg">
<g filter="url(#filter0_d_3_364)">
<path d="M196.775 380.722C196.775 378.497 198.579 376.693 200.803 376.693C203.027 376.693 204.832 378.497 204.832 380.722C204.832 382.946 203.027 384.75 200.803 384.75C198.579 384.775 196.775 382.946 196.775 380.722Z" fill="url(#paint0_linear_3_364)"/>
<path d="M201.47 316.366H200.136V378.423H201.47V316.366Z" fill="url(#paint1_linear_3_364)"/>
<path d="M92.8517 290.614C92.8517 288.389 94.6559 286.585 96.8802 286.585C99.1044 286.585 100.909 288.389 100.909 290.614C100.909 292.838 99.1044 294.642 96.8802 294.642C94.6559 294.642 92.8517 292.838 92.8517 290.614Z" fill="url(#paint2_linear_3_364)"/>
<path d="M97.5474 127.673H96.2128V288.291H97.5474V127.673Z" fill="url(#paint3_linear_3_364)"/>
<path d="M46.9081 151.745C46.9081 149.521 48.7122 147.717 50.9365 147.717C53.1608 147.717 54.9649 149.521 54.9649 151.745C54.9649 153.969 53.1608 155.773 50.9365 155.773C48.7369 155.798 46.9081 153.994 46.9081 151.745Z" fill="url(#paint4_linear_3_364)"/>
<path d="M51.6286 60.4508H50.294V149.446H51.6286V60.4508Z" fill="url(#paint5_linear_3_364)"/>
<path d="M171.641 221.884C171.641 219.659 173.445 217.855 175.669 217.855C177.893 217.855 179.697 219.659 179.697 221.884C179.697 224.108 177.893 225.912 175.669 225.912C173.445 225.937 171.641 224.108 171.641 221.884Z" fill="url(#paint6_linear_3_364)"/>
<path d="M176.336 130.59H175.002V219.585H176.336V130.59Z" fill="url(#paint7_linear_3_364)"/>
<path d="M299.165 228.903C299.165 226.678 300.97 224.874 303.194 224.874C305.418 224.874 307.222 226.678 307.222 228.903C307.222 231.127 305.418 232.931 303.194 232.931C300.97 232.931 299.165 231.127 299.165 228.903Z" fill="url(#paint8_linear_3_364)"/>
<path d="M303.886 137.608H302.551V226.604H303.886V137.608Z" fill="url(#paint9_linear_3_364)"/>
<path d="M159.802 296.273C159.802 294.049 161.606 292.245 163.831 292.245C166.055 292.245 167.859 294.049 167.859 296.273C167.859 298.498 166.055 300.302 163.831 300.302C161.606 300.326 159.802 298.498 159.802 296.273Z" fill="url(#paint10_linear_3_364)"/>
<path d="M164.523 127.055H163.188V293.95H164.523V127.055Z" fill="url(#paint11_linear_3_364)"/>
<path d="M183.256 265.677C183.256 263.453 185.06 261.649 187.285 261.649C189.509 261.649 191.313 263.453 191.313 265.677C191.313 267.901 189.509 269.706 187.285 269.706C185.06 269.706 183.256 267.901 183.256 265.677Z" fill="url(#paint12_linear_3_364)"/>
<path d="M187.976 130.12H186.642V263.354H187.976V130.12Z" fill="url(#paint13_linear_3_364)"/>
<path d="M125.771 442.655C125.771 440.431 127.575 438.627 129.799 438.627C132.024 438.627 133.828 440.431 133.828 442.655C133.828 444.879 132.024 446.684 129.799 446.684C127.6 446.684 125.771 444.879 125.771 442.655Z" fill="url(#paint14_linear_3_364)"/>
<path d="M130.491 133.308H129.157V440.332H130.491V133.308Z" fill="url(#paint15_linear_3_364)"/>
<path d="M243.287 309.347C243.287 307.123 245.091 305.319 247.315 305.319C249.539 305.319 251.344 307.123 251.344 309.347C251.344 311.571 249.539 313.375 247.315 313.375C245.091 313.375 243.287 311.571 243.287 309.347Z" fill="url(#paint16_linear_3_364)"/>
<path d="M248.007 0H246.673V307.024H248.007V0Z" fill="url(#paint17_linear_3_364)"/>
<path d="M304.454 326.523C304.454 324.299 306.258 322.495 308.483 322.495C310.707 322.495 312.511 324.299 312.511 326.523C312.511 328.748 310.707 330.552 308.483 330.552C306.258 330.552 304.454 328.748 304.454 326.523Z" fill="url(#paint18_linear_3_364)"/>
<path d="M309.15 17.1764H307.815V324.2H309.15V17.1764Z" fill="url(#paint19_linear_3_364)"/>
<path d="M57.6093 510.248C57.6093 508.024 59.4135 506.22 61.6378 506.22C63.862 506.22 65.6662 508.024 65.6662 510.248C65.6662 512.473 63.862 514.277 61.6378 514.277C59.4382 514.277 57.6093 512.473 57.6093 510.248Z" fill="url(#paint20_linear_3_364)"/>
<path d="M62.3298 200.901H60.9952V507.925H62.3298V200.901Z" fill="url(#paint21_linear_3_364)"/>
<path d="M315.427 388.63C315.427 386.406 317.232 384.602 319.456 384.602C321.68 384.602 323.484 386.406 323.484 388.63C323.484 390.854 321.68 392.659 319.456 392.659C317.232 392.659 315.427 390.854 315.427 388.63Z" fill="url(#paint22_linear_3_364)"/>
<path d="M320.148 79.2831H318.813V386.307H320.148V79.2831Z" fill="url(#paint23_linear_3_364)"/>
<path d="M4.89407 428.197C4.89407 425.973 6.69814 424.169 8.92242 424.169C11.1467 424.169 12.9508 425.973 12.9508 428.197C12.9508 430.422 11.1467 432.226 8.92242 432.226C6.69814 432.251 4.89407 430.446 4.89407 428.197Z" fill="url(#paint24_linear_3_364)"/>
<path d="M9.58974 256.014H8.25516V425.874H9.58974V256.014Z" fill="url(#paint25_linear_3_364)"/>
<path d="M74.3408 243.089C74.3408 240.864 76.1449 239.06 78.3692 239.06C80.5935 239.06 82.3976 240.864 82.3976 243.089C82.3976 245.313 80.5935 247.117 78.3692 247.117C76.1449 247.142 74.3408 245.338 74.3408 243.089Z" fill="url(#paint26_linear_3_364)"/>
<path d="M79.0612 117.763H77.7267V240.79H79.0612V117.763Z" fill="url(#paint27_linear_3_364)"/>
<path d="M293.976 460.202C293.976 457.978 295.78 456.174 298.004 456.174C300.228 456.174 302.032 457.978 302.032 460.202C302.032 462.427 300.228 464.231 298.004 464.231C295.78 464.231 293.976 462.427 293.976 460.202Z" fill="url(#paint28_linear_3_364)"/>
<path d="M298.696 287.994H297.361V457.855H298.696V287.994Z" fill="url(#paint29_linear_3_364)"/>
</g>
<defs>
<filter id="filter0_d_3_364" x="0.894073" y="0" width="395.345" height="572.719" filterUnits="userSpaceOnUse" color-interpolation-filters="sRGB">
<feFlood flood-opacity="0" result="BackgroundImageFix"/>
<feColorMatrix in="SourceAlpha" type="matrix" values="0 0 0 0 0 0 0 0 0 0 0 0 0 0 0 0 0 0 127 0" result="hardAlpha"/>
<feOffset dy="4"/>
<feGaussianBlur stdDeviation="2"/>
<feComposite in2="hardAlpha" operator="out"/>
<feColorMatrix type="matrix" values="0 0 0 0 0 0 0 0 0 0 0 0 0 0 0 0 0 0 0.25 0"/>
<feBlend mode="normal" in2="BackgroundImageFix" result="effect1_dropShadow_3_364"/>
<feBlend mode="normal" in="SourceGraphic" in2="effect1_dropShadow_3_364" result="shape"/>
</filter>
<linearGradient id="paint0_linear_3_364" x1="200.804" y1="358.066" x2="200.804" y2="288.068" gradientUnits="userSpaceOnUse">
<stop stop-color="#A4FFFF"/>
<stop offset="1" stop-color="#A4FFFF" stop-opacity="0"/>
</linearGradient>
<linearGradient id="paint1_linear_3_364" x1="200.803" y1="364.217" x2="200.803" y2="315.388" gradientUnits="userSpaceOnUse">
<stop stop-color="#A4FFFF"/>
<stop offset="1" stop-color="#A4FFFF" stop-opacity="0"/>
</linearGradient>
<linearGradient id="paint2_linear_3_364" x1="96.8804" y1="267.943" x2="96.8804" y2="197.923" gradientUnits="userSpaceOnUse">
<stop stop-color="#A4FFFF"/>
<stop offset="1" stop-color="#A4FFFF" stop-opacity="0"/>
</linearGradient>
<linearGradient id="paint3_linear_3_364" x1="96.8791" y1="251.561" x2="96.8791" y2="125.179" gradientUnits="userSpaceOnUse">
<stop stop-color="#A4FFFF"/>
<stop offset="1" stop-color="#A4FFFF" stop-opacity="0"/>
</linearGradient>
<linearGradient id="paint4_linear_3_364" x1="50.9565" y1="129.083" x2="50.9565" y2="59.063" gradientUnits="userSpaceOnUse">
<stop stop-color="#A4FFFF"/>
<stop offset="1" stop-color="#A4FFFF" stop-opacity="0"/>
</linearGradient>
<linearGradient id="paint5_linear_3_364" x1="50.9553" y1="129.083" x2="50.9553" y2="59.0636" gradientUnits="userSpaceOnUse">
<stop stop-color="#A4FFFF"/>
<stop offset="1" stop-color="#A4FFFF" stop-opacity="0"/>
</linearGradient>
<linearGradient id="paint6_linear_3_364" x1="175.667" y1="199.207" x2="175.667" y2="129.166" gradientUnits="userSpaceOnUse">
<stop stop-color="#A4FFFF"/>
<stop offset="1" stop-color="#A4FFFF" stop-opacity="0"/>
</linearGradient>
<linearGradient id="paint7_linear_3_364" x1="175.666" y1="199.213" x2="175.666" y2="129.194" gradientUnits="userSpaceOnUse">
<stop stop-color="#A4FFFF"/>
<stop offset="1" stop-color="#A4FFFF" stop-opacity="0"/>
</linearGradient>
<linearGradient id="paint8_linear_3_364" x1="303.209" y1="206.234" x2="303.209" y2="136.214" gradientUnits="userSpaceOnUse">
<stop stop-color="#A4FFFF"/>
<stop offset="1" stop-color="#A4FFFF" stop-opacity="0"/>
</linearGradient>
<linearGradient id="paint9_linear_3_364" x1="303.207" y1="206.234" x2="303.207" y2="136.215" gradientUnits="userSpaceOnUse">
<stop stop-color="#A4FFFF"/>
<stop offset="1" stop-color="#A4FFFF" stop-opacity="0"/>
</linearGradient>
<linearGradient id="paint10_linear_3_364" x1="163.845" y1="256.788" x2="163.845" y2="132.089" gradientUnits="userSpaceOnUse">
<stop stop-color="#A4FFFF"/>
<stop offset="1" stop-color="#A4FFFF" stop-opacity="0"/>
</linearGradient>
<linearGradient id="paint11_linear_3_364" x1="163.846" y1="256.79" x2="163.846" y2="132.092" gradientUnits="userSpaceOnUse">
<stop stop-color="#A4FFFF"/>
<stop offset="1" stop-color="#A4FFFF" stop-opacity="0"/>
</linearGradient>
<linearGradient id="paint12_linear_3_364" x1="187.3" y1="226.18" x2="187.3" y2="101.481" gradientUnits="userSpaceOnUse">
<stop stop-color="#A4FFFF"/>
<stop offset="1" stop-color="#A4FFFF" stop-opacity="0"/>
</linearGradient>
<linearGradient id="paint13_linear_3_364" x1="187.301" y1="233.675" x2="187.301" y2="134.127" gradientUnits="userSpaceOnUse">
<stop stop-color="#A4FFFF"/>
<stop offset="1" stop-color="#A4FFFF" stop-opacity="0"/>
</linearGradient>
<linearGradient id="paint14_linear_3_364" x1="129.82" y1="403.166" x2="129.82" y2="278.467" gradientUnits="userSpaceOnUse">
<stop stop-color="#A4FFFF"/>
<stop offset="1" stop-color="#A4FFFF" stop-opacity="0"/>
</linearGradient>
<linearGradient id="paint15_linear_3_364" x1="129.82" y1="371.961" x2="129.82" y2="142.573" gradientUnits="userSpaceOnUse">
<stop stop-color="#A4FFFF"/>
<stop offset="1" stop-color="#A4FFFF" stop-opacity="0"/>
</linearGradient>
<linearGradient id="paint16_linear_3_364" x1="247.327" y1="269.841" x2="247.327" y2="145.104" gradientUnits="userSpaceOnUse">
<stop stop-color="#A4FFFF"/>
<stop offset="1" stop-color="#A4FFFF" stop-opacity="0"/>
</linearGradient>
<linearGradient id="paint17_linear_3_364" x1="247.327" y1="238.647" x2="247.327" y2="9.25916" gradientUnits="userSpaceOnUse">
<stop stop-color="#A4FFFF"/>
<stop offset="1" stop-color="#A4FFFF" stop-opacity="0"/>
</linearGradient>
<linearGradient id="paint18_linear_3_364" x1="308.486" y1="287.022" x2="308.486" y2="162.288" gradientUnits="userSpaceOnUse">
<stop stop-color="#A4FFFF"/>
<stop offset="1" stop-color="#A4FFFF" stop-opacity="0"/>
</linearGradient>
<linearGradient id="paint19_linear_3_364" x1="308.486" y1="255.831" x2="308.486" y2="26.441" gradientUnits="userSpaceOnUse">
<stop stop-color="#A4FFFF"/>
<stop offset="1" stop-color="#A4FFFF" stop-opacity="0"/>
</linearGradient>
<linearGradient id="paint20_linear_3_364" x1="61.6556" y1="470.758" x2="61.6556" y2="346.06" gradientUnits="userSpaceOnUse">
<stop stop-color="#A4FFFF"/>
<stop offset="1" stop-color="#A4FFFF" stop-opacity="0"/>
</linearGradient>
<linearGradient id="paint21_linear_3_364" x1="61.6555" y1="439.554" x2="61.6555" y2="210.168" gradientUnits="userSpaceOnUse">
<stop stop-color="#A4FFFF"/>
<stop offset="1" stop-color="#A4FFFF" stop-opacity="0"/>
</linearGradient>
<linearGradient id="paint22_linear_3_364" x1="319.467" y1="349.146" x2="319.467" y2="224.485" gradientUnits="userSpaceOnUse">
<stop stop-color="#A4FFFF"/>
<stop offset="1" stop-color="#A4FFFF" stop-opacity="0"/>
</linearGradient>
<linearGradient id="paint23_linear_3_364" x1="319.467" y1="317.93" x2="319.467" y2="88.5425" gradientUnits="userSpaceOnUse">
<stop stop-color="#A4FFFF"/>
<stop offset="1" stop-color="#A4FFFF" stop-opacity="0"/>
</linearGradient>
<linearGradient id="paint24_linear_3_364" x1="8.92567" y1="388.719" x2="8.92567" y2="264.02" gradientUnits="userSpaceOnUse">
<stop stop-color="#A4FFFF"/>
<stop offset="1" stop-color="#A4FFFF" stop-opacity="0"/>
</linearGradient>
<linearGradient id="paint25_linear_3_364" x1="8.92665" y1="388.058" x2="8.92665" y2="261.146" gradientUnits="userSpaceOnUse">
<stop stop-color="#A4FFFF"/>
<stop offset="1" stop-color="#A4FFFF" stop-opacity="0"/>
</linearGradient>
<linearGradient id="paint26_linear_3_364" x1="78.3858" y1="203.61" x2="78.3858" y2="78.9117" gradientUnits="userSpaceOnUse">
<stop stop-color="#A4FFFF"/>
<stop offset="1" stop-color="#A4FFFF" stop-opacity="0"/>
</linearGradient>
<linearGradient id="paint27_linear_3_364" x1="78.387" y1="213.385" x2="78.387" y2="121.474" gradientUnits="userSpaceOnUse">
<stop stop-color="#A4FFFF"/>
<stop offset="1" stop-color="#A4FFFF" stop-opacity="0"/>
</linearGradient>
<linearGradient id="paint28_linear_3_364" x1="298.022" y1="420.716" x2="298.022" y2="296.055" gradientUnits="userSpaceOnUse">
<stop stop-color="#A4FFFF"/>
<stop offset="1" stop-color="#A4FFFF" stop-opacity="0"/>
</linearGradient>
<linearGradient id="paint29_linear_3_364" x1="298.021" y1="420.044" x2="298.021" y2="293.129" gradientUnits="userSpaceOnUse">
<stop stop-color="#A4FFFF"/>
<stop offset="1" stop-color="#A4FFFF" stop-opacity="0"/>
</linearGradient>
</defs>
</svg>
